<svg width="400" height="400" viewBox="0 0 400 400" fill="none" xmlns="http://www.w3.org/2000/svg">
<rect width="400" height="400" fill="black"/>
<g clip-path="url(#clip0_1_2)">
<path d="M43.5714 312.252V86.3624H77.1375C88.5296 86.3624 98.3452 88.4113 106.584 92.5091C114.925 96.5044 121.333 102.805 125.808 111.41C130.385 120.015 132.674 131.131 132.674 144.756C132.674 155.615 131.25 165.091 128.402 173.184C125.656 181.277 120.265 187.885 112.229 193.007C120.367 197.514 126.215 204.686 129.775 214.52C133.336 224.252 135.116 235.521 135.116 248.327C135.116 260.928 133.081 272.043 129.012 281.672C125.045 291.302 119.146 298.831 111.314 304.261C103.584 309.588 94.0223 312.252 82.6301 312.252H43.5714ZM76.5272 279.367C86.4953 279.367 93.0559 276.396 96.2091 270.454C99.3623 264.41 100.939 255.805 100.939 244.639C100.939 233.267 99.3623 224.662 96.2091 218.823C93.0559 212.881 86.4953 209.91 76.5272 209.91V279.367ZM76.5272 179.484C85.7833 179.484 92.1406 176.923 95.5988 171.801C99.1589 166.679 100.939 159.098 100.939 149.058C100.939 138.916 99.108 131.438 95.4463 126.623C91.8862 121.706 85.5799 119.247 76.5272 119.247V179.484Z" fill="white"/>
<path d="M164.206 314.711C159.121 314.711 154.849 313.072 151.391 309.793C147.932 306.514 145.338 302.366 143.609 297.346C141.88 292.224 141.016 287.05 141.016 281.826V144.141H171.835V275.679C171.835 278.855 172.394 281.16 173.513 282.594C174.735 283.926 176.616 284.592 179.159 284.592C181.397 284.592 183.278 283.823 184.804 282.287C186.432 280.648 187.906 278.753 189.229 276.601V144.141H220.048V312.252H189.229V298.115C185.567 301.598 181.448 305.234 176.87 309.025C172.293 312.815 168.072 314.711 164.206 314.711Z" fill="white"/>
<path d="M226.838 312.252V287.05L269.253 172.415H226.838V144.141H301.904V169.342L259.488 283.977H301.904V312.252H226.838Z" fill="white"/>
<path d="M280.505 312.252V287.05L322.921 172.415H287.218V144.141H355.571V169.342L313.156 283.977H355.571V312.252H280.505Z" fill="white"/>
</g>
<defs>
<clipPath id="clip0_1_2">
<rect width="312.857" height="243.333" fill="white" transform="translate(43.5714 78.3333)"/>
</clipPath>
</defs>
</svg>
